<?xml version="1.0" standalone="no"?>
<!DOCTYPE svg PUBLIC "-//W3C//DTD SVG 20010904//EN"
 "http://www.w3.org/TR/2001/REC-SVG-20010904/DTD/svg10.dtd">
<svg version="1.0" xmlns="http://www.w3.org/2000/svg"
 width="930.000000pt" height="930.000000pt" viewBox="0 0 930.000000 930.000000"
 preserveAspectRatio="xMidYMid meet">
<metadata>
Created by potrace 1.14, written by Peter Selinger 2001-2017
</metadata>
<g transform="translate(0.000000,930.000000) scale(0.100000,-0.100000)"
fill="#000000" stroke="none">
<path d="M4470 9184 c-874 -47 -1654 -305 -2355 -782 -1012 -688 -1713 -1777
-1919 -2982 -52 -300 -61 -413 -61 -765 0 -353 10 -467 61 -770 185 -1083 780
-2083 1649 -2771 963 -763 2197 -1099 3420 -933 846 115 1628 462 2300 1020
152 127 456 437 589 600 554 683 880 1454 991 2339 22 172 31 666 16 856 -70
873 -378 1692 -895 2379 -261 347 -621 700 -966 947 -124 89 -319 214 -355
228 -14 5 -60 33 -102 62 -88 59 -342 183 -518 253 -407 162 -838 263 -1291
305 -114 10 -464 19 -564 14z"/>
</g>
</svg>
